<svg width="2827" height="1736" viewBox="0 0 2827 1736" fill="none" xmlns="http://www.w3.org/2000/svg">
<path d="M1409.07 163.69C1408.59 167.754 1408.28 171.66 1408.08 175.253C1407.33 171.474 1406.42 167.337 1405.29 163.019C1400.82 145.81 1393.01 125.402 1379.61 113.675C1368.53 103.978 1350.9 97.8397 1336.24 94.1239C1330.82 92.7472 1325.76 91.6942 1321.54 90.9132C1325.68 90.4326 1330.61 89.7422 1335.88 88.7589C1350.28 86.0692 1367.53 81.1277 1377.82 72.0265C1388.94 62.1834 1395.22 44.5693 1398.73 29.7162C1400.03 24.2056 1400.97 19.0233 1401.63 14.6761C1402.34 19.0436 1403.33 24.2681 1404.69 29.8582C1408.36 44.928 1414.81 62.9632 1425.98 73.871C1437.88 85.4853 1458 91.8165 1474.86 95.2666C1478.48 96.0067 1481.96 96.6173 1485.2 97.12C1482.1 97.3697 1478.78 97.7025 1475.34 98.1447C1467.01 99.2179 1457.95 100.94 1449.58 103.7C1441.22 106.455 1433.45 110.277 1427.8 115.608C1421.84 121.229 1417.67 129.057 1414.74 137.517C1411.8 145.99 1410.08 155.201 1409.07 163.69Z" stroke="white" stroke-width="3"/>
<path d="M1417.12 1704.82C1416.64 1708.88 1416.32 1712.79 1416.12 1716.38C1415.38 1712.6 1414.46 1708.46 1413.34 1704.15C1408.86 1686.94 1401.05 1666.53 1387.65 1654.8C1376.57 1645.11 1358.94 1638.97 1344.29 1635.25C1338.86 1633.88 1333.8 1632.82 1329.58 1632.04C1333.73 1631.56 1338.66 1630.87 1343.92 1629.89C1358.33 1627.2 1375.57 1622.26 1385.86 1613.15C1396.99 1603.31 1403.26 1585.7 1406.78 1570.84C1408.08 1565.33 1409.01 1560.15 1409.68 1555.8C1410.38 1560.17 1411.37 1565.4 1412.73 1570.99C1416.41 1586.06 1422.86 1604.09 1434.03 1615C1445.93 1626.61 1466.04 1632.94 1482.9 1636.39C1486.52 1637.13 1490 1637.75 1493.25 1638.25C1490.14 1638.5 1486.83 1638.83 1483.39 1639.27C1475.05 1640.35 1465.99 1642.07 1457.62 1644.83C1449.27 1647.58 1441.5 1651.41 1435.85 1656.74C1429.89 1662.36 1425.71 1670.18 1422.78 1678.64C1419.85 1687.12 1418.12 1696.33 1417.12 1704.82Z" stroke="white" stroke-width="3"/>
<path d="M1166.7 1629.7C1166.7 1643.71 1154.83 1655.17 1140.05 1655.17C1125.27 1655.17 1113.4 1643.71 1113.4 1629.7C1113.4 1615.7 1125.27 1604.23 1140.05 1604.23C1154.83 1604.23 1166.7 1615.7 1166.7 1629.7Z" stroke="white" stroke-width="3"/>
<path d="M1713.6 1637.45C1713.6 1651.45 1701.73 1662.92 1686.95 1662.92C1672.17 1662.92 1660.3 1651.45 1660.3 1637.45C1660.3 1623.44 1672.17 1611.98 1686.95 1611.98C1701.73 1611.98 1713.6 1623.44 1713.6 1637.45Z" stroke="white" stroke-width="3"/>
<path d="M1713.6 96.3291C1713.6 110.336 1701.73 121.799 1686.95 121.799C1672.17 121.799 1660.3 110.336 1660.3 96.3291C1660.3 82.3224 1672.17 70.8594 1686.95 70.8594C1701.73 70.8594 1713.6 82.3224 1713.6 96.3291Z" stroke="white" stroke-width="3"/>
<path d="M1166.7 96.3291C1166.7 110.336 1154.83 121.799 1140.05 121.799C1125.27 121.799 1113.4 110.336 1113.4 96.3291C1113.4 82.3224 1125.27 70.8594 1140.05 70.8594C1154.83 70.8594 1166.7 82.3224 1166.7 96.3291Z" stroke="white" stroke-width="3"/>
<path d="M1247.12 1625.86C1247.12 1629.23 1244.26 1632.07 1240.58 1632.07C1236.91 1632.07 1234.04 1629.23 1234.04 1625.86C1234.04 1622.49 1236.91 1619.65 1240.58 1619.65C1244.26 1619.65 1247.12 1622.49 1247.12 1625.86Z" stroke="white" stroke-width="3"/>
<path d="M1592.96 1625.86C1592.96 1629.23 1590.09 1632.07 1586.42 1632.07C1582.75 1632.07 1579.88 1629.23 1579.88 1625.86C1579.88 1622.49 1582.75 1619.65 1586.42 1619.65C1590.09 1619.65 1592.96 1622.49 1592.96 1625.86Z" stroke="white" stroke-width="3"/>
<path d="M1794.03 1625.86C1794.03 1629.23 1791.16 1632.07 1787.49 1632.07C1783.81 1632.07 1780.94 1629.23 1780.94 1625.86C1780.94 1622.49 1783.81 1619.65 1787.49 1619.65C1791.16 1619.65 1794.03 1622.49 1794.03 1625.86Z" stroke="white" stroke-width="3"/>
<path d="M1785.99 100.212C1785.99 103.579 1783.12 106.417 1779.45 106.417C1775.77 106.417 1772.9 103.579 1772.9 100.212C1772.9 96.8441 1775.77 94.0059 1779.45 94.0059C1783.12 94.0059 1785.99 96.8441 1785.99 100.212Z" stroke="white" stroke-width="3"/>
<path d="M1592.96 92.4732C1592.96 95.8407 1590.09 98.6789 1586.42 98.6789C1582.75 98.6789 1579.88 95.8407 1579.88 92.4732C1579.88 89.1058 1582.75 86.2676 1586.42 86.2676C1590.09 86.2676 1592.96 89.1058 1592.96 92.4732Z" stroke="white" stroke-width="3"/>
<path d="M1239.08 92.4732C1239.08 95.8407 1236.21 98.6789 1232.54 98.6789C1228.86 98.6789 1226 95.8407 1226 92.4732C1226 89.1058 1228.86 86.2676 1232.54 86.2676C1236.21 86.2676 1239.08 89.1058 1239.08 92.4732Z" stroke="white" stroke-width="3"/>
<path d="M1046.06 92.4732C1046.06 95.8407 1043.19 98.6789 1039.51 98.6789C1035.84 98.6789 1032.97 95.8407 1032.97 92.4732C1032.97 89.1058 1035.84 86.2676 1039.51 86.2676C1043.19 86.2676 1046.06 89.1058 1046.06 92.4732Z" stroke="white" stroke-width="3"/>
<path d="M1046.06 1625.86C1046.06 1629.23 1043.19 1632.07 1039.51 1632.07C1035.84 1632.07 1032.97 1629.23 1032.97 1625.86C1032.97 1622.49 1035.84 1619.65 1039.51 1619.65C1043.19 1619.65 1046.06 1622.49 1046.06 1625.86Z" stroke="white" stroke-width="3"/>
<path d="M967.128 92.5059H32C15.4315 92.5059 2 105.937 2 122.506V1603.62C2 1620.19 15.4314 1633.62 32 1633.62H967.128" stroke="white" stroke-width="3"/>
<path d="M1859.87 92.5059H2795C2811.57 92.5059 2825 105.937 2825 122.506V1603.62C2825 1620.19 2811.57 1633.62 2795 1633.62H1859.87" stroke="white" stroke-width="3"/>
</svg>
