<svg width="798" height="53" viewBox="0 0 798 53" fill="none" xmlns="http://www.w3.org/2000/svg">
<line x1="0.000403842" y1="25.2754" x2="797.999" y2="25.9199" stroke="white"/>
<circle cx="753" cy="26.7754" r="9.5" transform="rotate(90 753 26.7754)" stroke="white"/>
<circle cx="741" cy="26.7754" r="9.5" transform="rotate(90 741 26.7754)" stroke="white"/>
<circle cx="793" cy="25.7754" r="4.5" transform="rotate(90 793 25.7754)" fill="white" stroke="white"/>
<path d="M649.505 8.61465C649.745 7.551 649.936 6.54269 650.088 5.64498C650.23 6.54268 650.411 7.55026 650.64 8.61194C651.436 12.2994 652.83 16.7464 655.239 19.4559C657.847 22.3889 662.449 24.106 666.305 25.0947C667.443 25.3865 668.527 25.6173 669.49 25.7978C668.542 25.9409 667.477 26.1279 666.357 26.3712C662.505 27.2079 657.882 28.7323 655.163 31.5143C652.267 34.4773 650.808 39.5791 650.062 43.837C649.96 44.4146 649.872 44.979 649.795 45.5234C649.728 44.996 649.651 44.4498 649.562 43.8911C648.891 39.6568 647.533 34.5759 644.731 31.608C643.245 30.0334 641.21 28.901 639.03 28.0817C636.845 27.2609 634.483 26.743 632.313 26.4161C631.591 26.3073 630.889 26.2195 630.221 26.1487C630.921 26.0209 631.658 25.872 632.417 25.6985C636.758 24.7062 641.926 22.886 644.837 19.5393C647.244 16.7726 648.674 12.3096 649.505 8.61465Z" fill="white" stroke="white"/>
</svg>
