<svg width="798" height="53" viewBox="0 0 798 53" fill="none" xmlns="http://www.w3.org/2000/svg">
<line x1="798" y1="27.5" x2="0.00129882" y2="26.8555" stroke="white"/>
<circle cx="45" cy="26" r="9.5" transform="rotate(-90 45 26)" stroke="white"/>
<circle cx="57" cy="26" r="9.5" transform="rotate(-90 57 26)" stroke="white"/>
<circle cx="5" cy="27" r="4.5" transform="rotate(-90 5 27)" fill="white" stroke="white"/>
<path d="M148.495 44.1607C148.255 45.2244 148.064 46.2327 147.912 47.1304C147.77 46.2327 147.589 45.2251 147.36 44.1634C146.564 40.476 145.17 36.029 142.761 33.3195C140.153 30.3865 135.551 28.6694 131.695 27.6807C130.557 27.3889 129.473 27.1581 128.51 26.9776C129.458 26.8345 130.523 26.6475 131.643 26.4042C135.495 25.5675 140.118 24.0431 142.837 21.2611C145.733 18.2981 147.192 13.1963 147.938 8.93841C148.04 8.36083 148.128 7.79637 148.205 7.25197C148.272 7.77943 148.349 8.32563 148.438 8.88425C149.109 13.1186 150.467 18.1995 153.269 21.1674C154.755 22.742 156.79 23.8744 158.97 24.6937C161.155 25.5145 163.517 26.0324 165.687 26.3593C166.409 26.4681 167.111 26.5559 167.779 26.6267C167.079 26.7545 166.342 26.9034 165.583 27.0769C161.242 28.0692 156.074 29.8894 153.163 33.2361C150.756 36.0028 149.326 40.4657 148.495 44.1607Z" fill="white" stroke="white"/>
</svg>
